<?xml version="1.0" encoding="UTF-8"?>
<svg version="1.1" xmlns="http://www.w3.org/2000/svg" width="1679" height="1528">
<path d="M0 0 C0 84.15 0 168.3 0 255 C-24.75 255.33 -49.5 255.66 -75 256 C-132.12801893 262.34755766 -185.67223578 273.03370526 -238 297 C-239.10102051 297.50112305 -240.20204102 298.00224609 -241.33642578 298.51855469 C-257.80929278 306.07362013 -273.53786547 314.55720134 -289 324 C-289.85029785 324.5141748 -290.7005957 325.02834961 -291.57666016 325.55810547 C-303.89985486 333.03179352 -315.54447143 341.26110527 -327 350 C-327.64308105 350.48855469 -328.28616211 350.97710938 -328.94873047 351.48046875 C-338.29501832 358.60810509 -347.21754281 366.19147762 -356 374 C-356.51288574 374.45358887 -357.02577148 374.90717773 -357.55419922 375.37451172 C-365.01837528 382.00741063 -372.13060539 389.00872292 -379.21630859 396.04107666 C-380.22096478 397.03769656 -381.22709702 398.03283122 -382.23486328 399.02630615 C-388.96003043 405.6660842 -395.15685168 412.56743075 -401 420 C-401.88389404 421.11097046 -401.88389404 421.11097046 -402.78564453 422.24438477 C-404.43110051 424.3208855 -406.06213656 426.40774318 -407.6875 428.5 C-408.27635986 429.25627686 -408.86521973 430.01255371 -409.47192383 430.79174805 C-413.81115224 436.39377883 -418.01522426 442.0855316 -422.1875 447.8125 C-427.05043852 454.47797492 -432.09822936 460.88139353 -437.5078125 467.109375 C-439.80530826 469.77418199 -442.00096212 472.49413717 -444.1875 475.25 C-454.28996583 487.607322 -465.74147663 498.83167929 -477 510.125 C-477.4884137 510.61609253 -477.97682739 511.10718506 -478.4800415 511.61315918 C-484.14468997 517.30141134 -489.89092675 522.79327461 -496 528 C-497.20346986 529.05672104 -498.40531179 530.11529914 -499.60546875 531.17578125 C-506.97592268 537.64514202 -514.45898308 543.8542241 -522.31347656 549.72998047 C-524.06165584 551.04642931 -525.7931975 552.38273498 -527.5234375 553.72265625 C-553.55456621 573.7518598 -581.92933947 590.78332613 -611 606 C-612.03898438 606.54479004 -613.07796875 607.08958008 -614.1484375 607.65087891 C-641.51721606 621.90003366 -669.87876423 633.81167568 -699 644 C-699.96628326 644.33970825 -699.96628326 644.33970825 -700.9520874 644.6862793 C-755.34912437 663.79231697 -811.28413563 676.9239946 -868 687 C-868.88741882 687.15770874 -869.77483765 687.31541748 -870.68914795 687.47790527 C-922.46355423 696.62159193 -974.99397224 702.41399985 -1027.36834717 706.77862549 C-1029.74505885 706.97855436 -1032.12088618 707.18635068 -1034.49658203 707.39794922 C-1053.894552 709.10483391 -1073.33051612 709.25257389 -1092.79008102 709.36111069 C-1094.86754546 709.37495034 -1096.94485487 709.39536541 -1099.02224731 709.41738892 C-1102.92895793 709.45695344 -1106.83526671 709.46104877 -1110.7421875 709.4609375 C-1111.93431351 709.47520279 -1113.12643951 709.48946808 -1114.35469055 709.50416565 C-1115.45048935 709.49811813 -1116.54628815 709.49207062 -1117.67529297 709.48583984 C-1118.63498993 709.48868988 -1119.59468689 709.49153992 -1120.58346558 709.49447632 C-1123 709 -1123 709 -1124.77029419 707.40713501 C-1128.30889866 700.48035738 -1127.13580257 691.68902974 -1127.11523438 684.13916016 C-1127.11482523 682.72665793 -1127.11481099 681.31415554 -1127.11515808 679.90165329 C-1127.11462918 676.04964944 -1127.10741342 672.19768425 -1127.09871864 668.3456912 C-1127.09371468 665.89677745 -1127.0905919 663.44786851 -1127.08811951 660.99895096 C-1127.04954757 622.83805486 -1126.81231207 584.67805936 -1126.55461884 546.518121 C-1126.49218798 537.25919946 -1126.43265197 528.00025981 -1126.37324238 518.74131846 C-1126.25182391 499.82752544 -1126.12713898 480.9137554 -1126 462 C-1124.88311295 461.95654953 -1123.76622589 461.91309906 -1122.61549377 461.86833191 C-1111.92677043 461.45137761 -1101.23844423 461.025247 -1090.55041599 460.5908308 C-1085.05973331 460.36793782 -1079.56897116 460.1479368 -1074.07788086 459.93530273 C-1042.59413599 458.71315846 -1011.11283894 457.43477424 -979.9375 452.5625 C-979.16701324 452.44461121 -978.39652649 452.32672241 -977.60269165 452.20526123 C-960.77952155 449.61650485 -944.02836686 446.58303211 -927.28822708 443.50898361 C-925.22746576 443.13230518 -923.16587636 442.76054019 -921.10397339 442.39016724 C-902.67615923 439.06990904 -884.82057837 434.77321688 -867 429 C-865.86282028 428.63334229 -865.86282028 428.63334229 -864.70266724 428.25927734 C-860.7536123 426.97404762 -856.83912553 425.60967227 -852.9375 424.1875 C-851.21648071 423.56439941 -851.21648071 423.56439941 -849.46069336 422.92871094 C-790.21759527 401.18201548 -735.06509599 369.26113027 -685 331 C-683.96617187 330.21109375 -682.93234375 329.4221875 -681.8671875 328.609375 C-679.1323738 326.51695052 -676.40600984 324.41384201 -673.68408203 322.3046875 C-672.55314256 321.42852912 -671.42129253 320.55354494 -670.28857422 319.6796875 C-663.04151918 314.08331646 -655.9644151 308.33857089 -649.04370117 302.3425293 C-645.53834602 299.30672503 -641.98807814 296.34558728 -638.375 293.4375 C-633.31759522 289.33347933 -628.53867988 284.97686011 -623.765625 280.55078125 C-621.55944053 278.51598117 -619.33367739 276.52353762 -617.0625 274.5625 C-612.51718522 270.61574519 -608.10605157 266.52504927 -603.69592285 262.42886353 C-601.35269715 260.25317544 -599.00505214 258.08246208 -596.65319824 255.91610718 C-586.73266049 246.74988293 -577.13654857 237.28362686 -567.59375 227.7265625 C-565.97300492 226.1064933 -564.35211161 224.48657237 -562.7310791 222.86679077 C-559.36466939 219.50184173 -556.00004027 216.1351255 -552.63671875 212.76708984 C-548.34224784 208.46689024 -544.04325783 204.17124076 -539.74294281 199.87688637 C-536.40730528 196.54487132 -533.07406397 193.21046735 -529.74153137 189.87534714 C-528.15714221 188.29029504 -526.57202138 186.70597392 -524.98612976 185.12242508 C-522.77151828 182.91037158 -520.56016799 180.6951066 -518.34960938 178.47900391 C-517.70638733 177.83780609 -517.06316528 177.19660828 -516.40045166 176.53598022 C-512.62908724 172.74719898 -509.04566462 168.84447852 -505.56218624 164.7890234 C-503.19563849 162.07884123 -500.67742494 159.53398932 -498.12890625 156.99609375 C-497.60288315 156.46911392 -497.07686005 155.94213409 -496.53489685 155.39918518 C-495.43456579 154.29818099 -494.33300068 153.19840875 -493.23022461 152.09985352 C-491.56573723 150.4407268 -489.90666553 148.77631949 -488.24804688 147.11132812 C-483.18257382 142.04306397 -478.11351177 137.04771997 -472.63183594 132.42358398 C-470.88936101 130.90348056 -469.28926694 129.29181587 -467.6875 127.625 C-463.12198502 123.0081871 -458.1052686 119.00160118 -453 115 C-451.99066406 114.20078125 -450.98132813 113.4015625 -449.94140625 112.578125 C-423.8830326 92.46819557 -393.26256519 76.79005502 -364 62 C-363.21802246 61.60361328 -362.43604492 61.20722656 -361.63037109 60.79882812 C-293.90249623 26.78012623 -217.64744658 10.92516099 -116.4375 2.3125 C-115.51941559 2.25165222 -114.60133118 2.19080444 -113.65542603 2.12811279 C-75.73156827 -0.34693137 -38.0566532 0 0 0 Z " fill="#00447E" transform="translate(1403,596)"/>
<path d="M0 0 C1.85833294 -0.00742094 3.71665629 -0.01802535 5.57495117 -0.03204346 C32.16899318 -0.21562376 32.16899318 -0.21562376 38.38244629 5.17623901 C39.16469089 8.50386445 39.03412514 11.81408777 38.98371887 15.2177887 C38.987991 16.26165782 38.99226312 17.30552695 38.9966647 18.38102847 C39.00493285 21.89612151 38.97734516 25.41003432 38.95007324 28.92501831 C38.94866361 31.43774385 38.94945309 33.95047146 38.95228577 36.4631958 C38.95342617 41.88174777 38.93920016 47.29991635 38.91109657 52.71838951 C38.8704902 60.55253669 38.85744234 68.38653826 38.85115661 76.22077928 C38.84020889 88.93070573 38.80692185 101.64047188 38.75964355 114.35031128 C38.71376026 126.69795936 38.67836237 139.04556393 38.65710449 151.39328003 C38.65579087 152.15417573 38.65447726 152.91507143 38.65312383 153.69902458 C38.64659873 157.51615057 38.64028017 161.33327687 38.63406432 165.15040338 C38.58221643 196.8257995 38.49376705 228.50099436 38.38244629 260.17623901 C35.80768551 261.03449261 33.91066182 261.39634344 31.24890137 261.62521362 C29.98539604 261.73566261 29.98539604 261.73566261 28.69636536 261.8483429 C27.77421738 261.92432205 26.8520694 262.00030121 25.90197754 262.07858276 C24.44002205 262.20143394 24.44002205 262.20143394 22.9485321 262.32676697 C19.69783489 262.59567454 16.44653659 262.8558632 13.19494629 263.11373901 C12.0682251 263.20405396 10.94150391 263.2943689 9.78063965 263.38742065 C-8.01212797 264.79490638 -25.77915721 265.64246866 -43.61755371 266.17623901 C-135.13262586 268.98517941 -225.84251567 282.74390182 -334.61755371 322.17623901 C-335.7229248 322.62934448 -336.8282959 323.08244995 -337.96716309 323.54928589 C-396.65111676 347.78758744 -452.08848961 379.32965074 -501.61755371 419.17623901 C-502.24871094 419.68122925 -502.87986816 420.18621948 -503.53015137 420.70651245 C-517.41978338 431.82779948 -530.8771981 443.38339137 -543.86950684 455.54147339 C-545.7872554 457.33494327 -547.71019022 459.12276432 -549.63317871 460.91061401 C-563.65807043 473.91129751 -563.65807043 473.91129751 -576.64880371 487.92623901 C-578.6950903 490.26485226 -580.80115902 492.53635016 -582.92199707 494.80709839 C-587.07965159 499.25881988 -591.13175701 503.72112274 -594.93005371 508.48873901 C-599.33477728 513.97659133 -604.10641905 519.07041101 -608.95080566 524.16769409 C-612.32574794 527.71981293 -615.63964608 531.3106392 -618.89489746 534.97311401 C-623.51861823 540.13056849 -628.34827195 545.05929653 -633.25646973 549.94552612 C-634.68595088 551.36961393 -636.10995882 552.79901945 -637.53356934 554.22897339 C-642.18112468 558.87006032 -646.8718554 563.38801783 -651.85900879 567.66281128 C-654.44804489 569.89097104 -656.93057812 572.22305616 -659.43005371 574.55123901 C-664.07659499 578.84375109 -668.85854611 582.90961933 -673.78942871 586.87545776 C-676.29571947 588.9144153 -678.75349689 590.99999002 -681.20056152 593.10934448 C-688.3892978 599.2895575 -695.86289944 605.01954115 -703.50524902 610.62594604 C-704.9106922 611.65744907 -706.31370454 612.69227257 -707.7142334 613.73043823 C-732.09661253 631.80042776 -757.92412976 647.76244008 -784.61755371 662.17623901 C-785.46060059 662.63466187 -786.30364746 663.09308472 -787.17224121 663.56539917 C-849.46497882 697.30349294 -918.27041143 718.29336775 -988.61755371 726.17623901 C-989.48509277 726.28065308 -990.35263184 726.38506714 -991.24645996 726.49264526 C-1022.61097863 730.18533822 -1056.84870686 730.86845073 -1087.61755371 723.17623901 C-1087.61755371 639.02623901 -1087.61755371 554.87623901 -1087.61755371 468.17623901 C-1067.81755371 467.84623901 -1048.01755371 467.51623901 -1027.61755371 467.17623901 C-1006.31278644 465.72693512 -985.55920868 463.23540155 -964.61755371 459.17623901 C-963.52990723 458.96660522 -962.44226074 458.75697144 -961.32165527 458.54098511 C-933.62209457 453.04423452 -906.85731969 443.80517825 -881.61755371 431.17623901 C-880.72713379 430.73844116 -879.83671387 430.30064331 -878.91931152 429.84957886 C-858.4188117 419.7268476 -839.43752608 407.48324327 -821.61755371 393.17623901 C-820.62755371 392.38733276 -819.63755371 391.59842651 -818.61755371 390.78561401 C-815.92598363 388.61044982 -813.26588019 386.40383845 -810.61755371 384.17623901 C-810.05407227 383.70299194 -809.49059082 383.22974487 -808.91003418 382.74215698 C-799.76607453 375.05050471 -799.76607453 375.05050471 -791.18395996 366.74655151 C-789.42274513 364.98094462 -787.57132465 363.36399304 -785.68005371 361.73873901 C-778.32683724 355.36123781 -772.02039762 348.43706914 -765.94812012 340.83639526 C-763.35577981 337.60191561 -760.73345996 334.39166311 -758.11755371 331.17623901 C-756.99506631 329.79480299 -755.87266896 328.4132938 -754.75036621 327.03170776 C-753.94647461 326.04243286 -753.94647461 326.04243286 -753.12634277 325.03317261 C-751.80795582 323.41057533 -750.49005726 321.78758125 -749.17224121 320.16452026 C-740.75024272 309.82568699 -732.18066514 299.67765458 -723.11755371 289.89498901 C-720.99183893 287.58327419 -718.91710321 285.24268039 -716.86755371 282.86373901 C-714.19488174 279.77743924 -711.3708092 276.90499311 -708.45666504 274.04782104 C-706.69438046 272.25442219 -705.05771898 270.40490135 -703.42614746 268.49264526 C-699.52708733 264.00991202 -695.39110726 259.8020506 -691.18005371 255.61373901 C-690.46784668 254.89766479 -689.75563965 254.18159058 -689.02185059 253.44381714 C-684.94952124 249.3788853 -680.78584245 245.48763203 -676.4083252 241.75265503 C-674.56459685 240.12962109 -672.8369982 238.42970129 -671.11755371 236.67623901 C-667.45484568 232.96436712 -663.57775942 229.56612384 -659.61755371 226.17623901 C-658.56272989 225.26884538 -657.50805385 224.36127993 -656.45349121 223.45358276 C-653.44245654 220.86419496 -650.42393464 218.28367827 -647.40368652 215.70504761 C-645.73873207 214.27995947 -644.07979289 212.84820423 -642.42224121 211.41452026 C-634.52011658 204.61098067 -626.31544987 198.25938935 -617.99645996 191.97555542 C-614.59174468 189.40035513 -611.19736873 186.8116651 -607.8026123 184.22335815 C-606.0091611 182.85601061 -604.21521368 181.48931367 -602.42077637 180.1232605 C-597.62735057 176.474069 -592.84197249 172.81483996 -588.06604004 169.14279175 C-584.59174736 166.47601747 -581.10561818 163.82496007 -577.61755371 161.17623901 C-576.58090576 160.38564087 -576.58090576 160.38564087 -575.52331543 159.57907104 C-545.61828588 136.85015091 -513.60963426 117.06261742 -480.61755371 99.17623901 C-479.65655762 98.65175171 -478.69556152 98.1272644 -477.70544434 97.58688354 C-425.67632756 69.29858279 -368.91531587 48.76483488 -311.61755371 34.17623901 C-310.8708844 33.98521606 -310.12421509 33.79419312 -309.35491943 33.59738159 C-222.39761497 11.40816422 -132.41830617 2.71120299 -42.86755371 0.61373901 C-41.99621796 0.59322479 -41.1248822 0.57271057 -40.22714233 0.55157471 C-26.81939358 0.24447634 -13.41125139 0.04887233 0 0 Z " fill="#00437D" transform="translate(1364.6175537109375,223.82376098632813)"/>
</svg>
